<svg width="56" height="57" viewBox="0 0 56 57" fill="none" xmlns="http://www.w3.org/2000/svg">
<path d="M28 37.8335C31.866 37.8335 35 34.6995 35 30.8335C35 26.9675 31.866 23.8335 28 23.8335C24.134 23.8335 21 26.9675 21 30.8335C21 34.6995 24.134 37.8335 28 37.8335Z" stroke="#666666" stroke-width="2.5"/>
<path d="M4.66663 31.6828C4.66663 24.5311 4.66663 20.9564 6.41429 18.3898C7.173 17.2736 8.14526 16.3188 9.27496 15.5804C10.955 14.4768 13.0596 14.0824 16.282 13.9424C17.8196 13.9424 19.1426 12.7991 19.4436 11.3174C19.6737 10.2321 20.2713 9.25953 21.1356 8.56399C22 7.86846 23.0779 7.49266 24.1873 7.50011H31.8126C34.118 7.50011 36.1036 9.09844 36.5563 11.3174C36.8573 12.7991 38.1803 13.9424 39.718 13.9424C42.938 14.0824 45.0426 14.4791 46.725 15.5804C47.8566 16.3224 48.8296 17.2768 49.5856 18.3898C51.3333 20.9564 51.3333 24.5311 51.3333 31.6828C51.3333 38.8321 51.3333 42.4068 49.5856 44.9758C48.8256 46.0908 47.8536 47.0454 46.725 47.7851C44.1093 49.5001 40.467 49.5001 33.1846 49.5001H22.8153C15.533 49.5001 11.8906 49.5001 9.27496 47.7851C8.14689 47.0446 7.17564 46.0892 6.41663 44.9734C5.9109 44.2177 5.53766 43.3813 5.31296 42.5001M44.3333 23.8334H42" stroke="#666666" stroke-width="2.5" stroke-linecap="round"/>
</svg>
