<svg width="44" height="43" viewBox="0 0 44 43" fill="none" xmlns="http://www.w3.org/2000/svg">
<mask id="mask0_2138_716" style="mask-type:alpha" maskUnits="userSpaceOnUse" x="0" y="0" width="44" height="43">
<rect x="0.769836" y="6.10352e-05" width="42.4604" height="42.4604" fill="#D9D9D9"/>
</mask>
<g mask="url(#mask0_2138_716)">
<path d="M11.5767 26.3564C10.1024 26.3564 8.84924 25.8404 7.81722 24.8084C6.78519 23.7764 6.26918 22.5232 6.26918 21.0489V15.7413C6.26918 15.2401 6.43873 14.8199 6.77782 14.4808C7.11692 14.1417 7.5371 13.9722 8.03836 13.9722H29.3128C29.4602 12.9991 29.8583 12.1293 30.507 11.3626C31.1557 10.596 31.9518 10.0505 32.8954 9.72613L39.3971 7.55888C39.8689 7.41145 40.3259 7.44094 40.7682 7.64734C41.2105 7.85374 41.5054 8.19284 41.6528 8.66462C41.8003 9.1364 41.7634 9.59344 41.5423 10.0357C41.3211 10.478 40.9746 10.7729 40.5029 10.9203L34.0011 13.0876C33.6473 13.2055 33.3598 13.4193 33.1386 13.7289C32.9175 14.0385 32.8069 14.385 32.8069 14.7683V21.0489C32.8069 22.5232 32.2909 23.7764 31.2589 24.8084C30.2269 25.8404 28.9737 26.3564 27.4994 26.3564H11.5767ZM16.8843 35.2024V31.664H6.26918C5.76791 31.664 5.34773 31.4944 5.00864 31.1553C4.66955 30.8163 4.5 30.3961 4.5 29.8948C4.5 29.3935 4.66955 28.9734 5.00864 28.6343C5.34773 28.2952 5.76791 28.1256 6.26918 28.1256H16.8843C17.8573 28.1256 18.6903 28.4721 19.3832 29.165C20.0762 29.858 20.4226 30.6909 20.4226 31.664V35.2024C20.4226 35.7036 20.2531 36.1238 19.914 36.4629C19.5749 36.802 19.1547 36.9715 18.6535 36.9715C18.1522 36.9715 17.732 36.802 17.3929 36.4629C17.0538 36.1238 16.8843 35.7036 16.8843 35.2024ZM23.961 35.2024V31.664C23.961 30.6909 24.3075 29.858 25.0004 29.165C25.6933 28.4721 26.5263 28.1256 27.4994 28.1256H38.1145C38.6157 28.1256 39.0359 28.2952 39.375 28.6343C39.7141 28.9734 39.8836 29.3935 39.8836 29.8948C39.8836 30.3961 39.7141 30.8163 39.375 31.1553C39.0359 31.4944 38.6157 31.664 38.1145 31.664H27.4994V35.2024C27.4994 35.7036 27.3298 36.1238 26.9907 36.4629C26.6516 36.802 26.2315 36.9715 25.7302 36.9715C25.2289 36.9715 24.8087 36.802 24.4696 36.4629C24.1306 36.1238 23.961 35.7036 23.961 35.2024Z" fill="#FA9E31"/>
</g>
</svg>
