<svg width="24" height="24" viewBox="0 0 24 24" fill="none" xmlns="http://www.w3.org/2000/svg">
<mask id="mask0_2138_703" style="mask-type:alpha" maskUnits="userSpaceOnUse" x="0" y="0" width="24" height="24">
<rect width="24" height="24" fill="#D9D9D9"/>
</mask>
<g mask="url(#mask0_2138_703)">
<path d="M4 19V11.625L3 12.4C2.76666 12.5667 2.51666 12.6333 2.25 12.6C1.98333 12.5667 1.76666 12.4333 1.6 12.2C1.43333 11.9667 1.36666 11.7167 1.4 11.45C1.43333 11.1833 1.55833 10.9667 1.775 10.8L4 9.1V7C4 6.71667 4.09583 6.47917 4.2875 6.2875C4.47916 6.09583 4.71666 6 5 6C5.28333 6 5.52083 6.09583 5.7125 6.2875C5.90416 6.47917 6 6.71667 6 7V7.575L10.775 3.925C10.9583 3.79167 11.1542 3.69167 11.3625 3.625C11.5708 3.55833 11.7833 3.525 12 3.525C12.2167 3.525 12.4292 3.55833 12.6375 3.625C12.8458 3.69167 13.0417 3.79167 13.225 3.925L22.225 10.8C22.4417 10.9667 22.5667 11.1833 22.6 11.45C22.6333 11.7167 22.5667 11.9667 22.4 12.2C22.2333 12.4167 22.0167 12.5417 21.75 12.575C21.4833 12.6083 21.2417 12.5417 21.025 12.375L20 11.625V19C20 19.55 19.8042 20.0208 19.4125 20.4125C19.0208 20.8042 18.55 21 18 21H13.5C13.3667 21 13.25 20.95 13.15 20.85C13.05 20.75 13 20.6333 13 20.5V16C13 15.7167 12.9042 15.4792 12.7125 15.2875C12.5208 15.0958 12.2833 15 12 15C11.7167 15 11.4792 15.0958 11.2875 15.2875C11.0958 15.4792 11 15.7167 11 16V20.5C11 20.6333 10.95 20.75 10.85 20.85C10.75 20.95 10.6333 21 10.5 21H6C5.45 21 4.97916 20.8042 4.5875 20.4125C4.19583 20.0208 4 19.55 4 19ZM5.3 5C4.91666 5 4.62083 4.84167 4.4125 4.525C4.20416 4.20833 4.19166 3.88333 4.375 3.55C4.65833 3.06667 5.02916 2.6875 5.4875 2.4125C5.94583 2.1375 6.45 2 7 2C7.18333 2 7.35833 1.95417 7.525 1.8625C7.69166 1.77083 7.81666 1.64167 7.9 1.475C7.98333 1.325 8.09583 1.20833 8.2375 1.125C8.37916 1.04167 8.54166 1 8.725 1C9.10833 1 9.4 1.15833 9.6 1.475C9.8 1.79167 9.80833 2.11667 9.625 2.45C9.34166 2.93333 8.97083 3.3125 8.5125 3.5875C8.05416 3.8625 7.55 4 7 4C6.81666 4 6.64166 4.04167 6.475 4.125C6.30833 4.20833 6.18333 4.34167 6.1 4.525C6.01666 4.675 5.90833 4.79167 5.775 4.875C5.64166 4.95833 5.48333 5 5.3 5Z" fill="#FAFAFA"/>
</g>
</svg>
